<svg width="87" height="87" viewBox="0 0 87 87" fill="none" xmlns="http://www.w3.org/2000/svg">
<path d="M67.4348 57.6274V47.9591H65.0332V59.533C65.5515 58.542 66.4154 57.8306 67.4348 57.6274Z" fill="white"/>
<path d="M63.8489 72.489V45.7811C62.549 45.3472 61.1881 45.0118 59.7968 44.7668V70.2917H59.2033C54.2822 70.2917 50.8603 70.8395 48.4902 71.5194C52.3868 70.9056 58.0294 70.6373 63.8489 72.489Z" fill="white"/>
<path d="M53.3768 43.7058V42.2809V39.5582C48.2383 39.9139 44.6365 44.777 44.0938 45.5545V71.8375C45.665 70.3537 48.9294 67.8718 53.3768 67.6655V43.7058Z" fill="white"/>
<path d="M43.4899 45.3553L43.4844 45.3575H43.4899V45.3553Z" fill="white"/>
<path d="M21.2919 61.6337C21.2919 60.0411 20.2512 58.7453 18.9717 58.7453C17.6921 58.7453 16.6504 60.0411 16.6504 61.6337C16.6504 63.2232 17.6911 64.517 18.9717 64.517C20.2522 64.517 21.2919 63.2232 21.2919 61.6337Z" fill="white"/>
<path d="M42.9061 45.5545C42.3624 44.777 38.7616 39.9139 33.623 39.5582V42.2809V43.7058V67.6655C38.0684 67.8718 41.3328 70.3527 42.9061 71.8375V45.5545Z" fill="white"/>
<path d="M38.5171 71.5225C36.147 70.8405 32.723 70.2928 27.7979 70.2928H27.2044V44.7679C25.8131 45.0128 24.4532 45.3482 23.1523 45.7822V72.49C28.9738 70.6363 34.6215 70.9066 38.5171 71.5225Z" fill="white"/>
<path d="M21.966 59.5421V47.9591H19.5645V57.6274C20.5869 57.8306 21.4497 58.5481 21.966 59.5421Z" fill="white"/>
<path d="M65.0326 63.7314V74.1507L64.2429 73.8732C54.5848 70.4818 45.2265 73.359 43.8697 73.8122L43.7996 73.9007H43.7915H43.7274H43.5171H43.512V73.3305L43.4988 73.3153L43.4876 73.9007H43.4815H43.2711H43.2071H43.199L43.1288 73.8122C41.7721 73.359 32.4148 70.4818 22.7557 73.8732L21.966 74.1507V63.7222C21.4497 64.7152 20.5859 65.4307 19.5645 65.6339V76.4608H67.4341V65.6339C66.4148 65.4307 65.5509 64.7202 65.0326 63.7314Z" fill="white"/>
<path d="M68.0275 58.7443C66.7449 58.7443 65.7012 60.0401 65.7012 61.6327C65.7012 63.2222 66.7449 64.516 68.0275 64.516C69.3071 64.516 70.3488 63.2232 70.3488 61.6327C70.3478 60.0401 69.3071 58.7443 68.0275 58.7443Z" fill="white"/>
<path d="M43.5178 45.3574H43.5321L43.5188 45.3492L43.5137 45.3543L43.5178 45.3574Z" fill="white"/>
<path d="M53.9685 38.3508H54.562V40.3225C56.1007 40.0654 57.6557 39.9282 59.1995 39.9282H59.793V43.5645C60.0074 43.6011 60.2229 43.6367 60.4363 43.6774V40.1314C58.4698 37.176 54.7185 34.8425 50.0963 33.6879C48.1541 34.8222 45.904 35.4838 43.4984 35.4838C41.0907 35.4838 38.8395 34.8211 36.8963 33.6859C32.0952 34.8852 28.2739 37.3325 26.3652 40.4373V43.7119C26.6427 43.657 26.9242 43.6123 27.2047 43.5645V39.9282H27.7982C29.343 39.9282 30.898 40.0654 32.4357 40.3225V38.3508H33.0292C38.2917 38.3508 42.1405 42.6194 43.4994 44.3857C44.8582 42.6194 48.707 38.3508 53.9685 38.3508Z" fill="white"/>
<path d="M31.5527 22.3478C31.5527 28.9366 36.9128 34.2957 43.5006 34.2957C50.0884 34.2957 55.4484 28.9366 55.4484 22.3478C55.4484 15.7601 50.0884 10.4 43.5006 10.4C36.9128 10.4 31.5527 15.759 31.5527 22.3478Z" fill="white"/>
<path d="M32.4365 43.7058V42.2809V41.5248C31.097 41.291 29.7412 41.1518 28.3926 41.1223V43.7058V69.1087C32.6601 69.1463 35.831 69.5904 38.1828 70.1911C36.7345 69.5467 35.0027 69.0701 33.03 69.0701H32.4365V68.8384V43.7058Z" fill="white"/>
<path d="M54.563 42.2809V43.7058V68.8384V69.0711H53.9695C51.9927 69.0711 50.2579 69.5498 48.8086 70.1952C51.1654 69.5904 54.3394 69.1463 58.608 69.1087V43.7058V41.1223C57.2593 41.1528 55.9035 41.292 54.564 41.5248V42.2809H54.563Z" fill="white"/>
<path d="M23.2981 86.8618C24.5566 86.8618 25.5767 85.8416 25.5767 84.5832C25.5767 83.3248 24.5566 82.3046 23.2981 82.3046C22.0397 82.3046 21.0195 83.3248 21.0195 84.5832C21.0195 85.8416 22.0397 86.8618 23.2981 86.8618Z" fill="white"/>
<path d="M3.25934 22.9129L2.25216 24.9537L0 25.281L1.62916 26.8695L1.24499 29.1125L3.25934 28.0535L5.27368 29.1125L4.8885 26.8695L6.51867 25.281L4.26651 24.9537L3.25934 22.9129Z" fill="white"/>
<path d="M23.3615 5.12632L24.7518 5.85705L24.4865 4.30818L25.6116 3.21157L24.0566 2.98595L23.3615 1.57733L22.6663 2.98595L21.1113 3.21157L22.2364 4.30818L21.9711 5.85705L23.3615 5.12632Z" fill="white"/>
<path d="M83.1163 65.7386L84.5076 66.4693L84.2414 64.9215L85.3664 63.8249L83.8125 63.5982L83.1163 62.1896L82.4211 63.5982L80.8672 63.8249L81.9923 64.9215L81.726 66.4693L83.1163 65.7386Z" fill="white"/>
<path d="M83.1158 9.01273L82.1991 11.835H79.2324L81.632 13.5801L80.7152 16.4014L83.1158 14.6574L85.5163 16.4014L84.5996 13.5801L87.0002 11.835H84.0325L83.1158 9.01273Z" fill="white"/>
<path d="M75.0305 4.55718C76.289 4.55718 77.3091 3.53702 77.3091 2.27859C77.3091 1.02016 76.289 0 75.0305 0C73.7721 0 72.752 1.02016 72.752 2.27859C72.752 3.53702 73.7721 4.55718 75.0305 4.55718Z" fill="white"/>
<path d="M84.6765 46.2476C85.6789 46.2476 86.4916 45.4349 86.4916 44.4325C86.4916 43.43 85.6789 42.6173 84.6765 42.6173C83.674 42.6173 82.8613 43.43 82.8613 44.4325C82.8613 45.4349 83.674 46.2476 84.6765 46.2476Z" fill="white"/>
<path d="M9.80969 14.4815C11.1349 14.4815 12.2092 13.4072 12.2092 12.082C12.2092 10.7568 11.1349 9.68246 9.80969 9.68246C8.48446 9.68246 7.41016 10.7568 7.41016 12.082C7.41016 13.4072 8.48446 14.4815 9.80969 14.4815Z" fill="white"/>
<path d="M16.9492 84.6055C17.2805 84.6899 17.6149 84.7641 17.9533 84.8322L18.054 84.3342C17.7237 84.2681 17.3974 84.1939 17.0742 84.1136L16.9492 84.6055Z" fill="white"/>
<path d="M1.58398 67.6289C1.68257 68.2926 1.81571 68.9593 1.97832 69.6108L2.47123 69.4868C2.31167 68.8516 2.18158 68.2011 2.08605 67.5547L1.58398 67.6289Z" fill="white"/>
<path d="M13.1465 83.2417C13.7532 83.5293 14.3823 83.7905 15.0145 84.0171L15.1862 83.5384C14.5693 83.3179 13.9565 83.0628 13.364 82.7823L13.1465 83.2417Z" fill="white"/>
<path d="M1.87144 64.6227C1.87144 64.2904 1.87957 63.957 1.89583 63.6216L1.38869 63.5972C1.37141 63.9397 1.36328 64.2822 1.36328 64.6227C1.36328 64.956 1.37141 65.2884 1.38767 65.6187L1.89482 65.5943C1.87856 65.2711 1.87144 64.9469 1.87144 64.6227Z" fill="white"/>
<path d="M6.69727 78.4406C7.14546 78.9386 7.62618 79.4203 8.12418 79.8736L8.46668 79.4975C7.98088 79.0554 7.51235 78.5859 7.07432 78.1001L6.69727 78.4406Z" fill="white"/>
<path d="M2.56641 71.5449C2.79203 72.174 3.05221 72.802 3.34084 73.4118L3.80022 73.1944C3.5187 72.5998 3.26462 71.987 3.04509 71.3731L2.56641 71.5449Z" fill="white"/>
<path d="M4.29297 75.1934C4.6375 75.7697 5.01557 76.3358 5.41499 76.8754L5.82355 76.5736C5.4343 76.0461 5.06537 75.4942 4.72897 74.9322L4.29297 75.1934Z" fill="white"/>
<path d="M9.68164 81.1602C10.2223 81.5627 10.7874 81.9418 11.3616 82.2863L11.6238 81.8503C11.0638 81.5139 10.513 81.144 9.98552 80.7517L9.68164 81.1602Z" fill="white"/>
<path d="M2.26468 60.656L1.76668 60.5564C1.69961 60.8948 1.63964 61.2323 1.58984 61.5707L2.09191 61.6449C2.14171 61.3156 2.19964 60.9853 2.26468 60.656Z" fill="white"/>
<path d="M85.2461 72.8854L85.7522 72.9321C85.7837 72.5906 85.803 72.2461 85.8102 71.8985L85.302 71.8884C85.2949 72.2238 85.2756 72.5561 85.2461 72.8854Z" fill="white"/>
<path d="M81.8242 80.7608L82.2043 81.0982C82.7054 80.5342 83.1637 79.9274 83.5682 79.2963L83.1404 79.0219C82.7511 79.6317 82.308 80.2161 81.8242 80.7608Z" fill="white"/>
<path d="M78.4648 83.5151L78.721 83.9541C79.3704 83.575 79.9944 83.1411 80.5768 82.6634L80.2546 82.2701C79.6926 82.7305 79.0909 83.1502 78.4648 83.5151Z" fill="white"/>
<path d="M84.166 77.099L84.6325 77.3013C84.9323 76.6112 85.1793 75.8917 85.3653 75.163L84.8734 75.0369C84.6925 75.7402 84.4547 76.4333 84.166 77.099Z" fill="white"/>
<path d="M74.4121 85.0842L74.5178 85.5812C75.2526 85.4247 75.9803 85.2072 76.6836 84.9348L76.4996 84.4612C75.8238 84.7245 75.1205 84.9338 74.4121 85.0842Z" fill="white"/>
<path d="M71.2465 85.3841L71.2363 85.8922C71.3339 85.8943 71.4315 85.8953 71.529 85.8953C71.778 85.8953 72.025 85.8892 72.2709 85.876L72.2455 85.3688C71.9142 85.3861 71.5829 85.3932 71.2465 85.3841Z" fill="white"/>
<path d="M84.932 31.6177H84.4238V33.6503H84.932V31.6177Z" fill="white"/>
<path d="M84.932 23.4872H84.4238V25.5198H84.932V23.4872Z" fill="white"/>
<path d="M84.932 35.683H84.4238V37.7156H84.932V35.683Z" fill="white"/>
<path d="M84.932 27.5524H84.4238V29.5851H84.932V27.5524Z" fill="white"/>
</svg>
